<svg width="140" height="48" version="1.1" viewBox="0 0 37.041666 12.7" xmlns="http://www.w3.org/2000/svg">
    <g transform="translate(-1.8e-6,-3.04e-5)" fill="#f7f8f8">
        <path d="m5.6420329 1.5880168c-0.051905 0.00647-0.0857829 0.0610634-0.0857829 0.1545125v7.2713908c0 0.149518 0.0872 0.3405166 0.1953369 0.4278808l2.2551595 1.6278081c0.1081378 0.08737 0.1953369 0.03738 0.1953369-0.112138v-7.2719078c0-0.1495181-0.0872-0.3399999-0.1953369-0.4273641l-2.2551595-1.6278077c-0.0405518-0.032762-0.0784109-0.0462573-0.109554-0.0423746z"/>
        <path d="m8.8346029 1.8526001c-0.062286 0.00611-0.1033529 0.05747-0.1033529 0.1457275v6.8677979c0 0.1412115 0.1048461 0.3210823 0.234611 0.4035929l2.441195 1.5373736c0.129765 0.08252 0.234611 0.03527 0.234611-0.105936v-6.8672815c0-0.1412115-0.104847-0.3215991-0.234611-0.4041097l-2.441195-1.5373738c-0.048662-0.030942-0.0938861-0.0434577-0.1312581-0.0397909z"/>
        <path d="m3.0006972 1.3231945c-0.05448-0.00441-0.090354 0.043692-0.090354 0.1377428v7.7141091c0 0.1504812 0.09144 0.3608382 0.2049345 0.4715239l1.706945 1.6647787c0.1134901 0.11069 0.2049337 0.07826 0.2049337-0.07223v-7.7141042c0-0.1504812-0.091443-0.3608381-0.2049337-0.4715238l-1.7069508-1.6647784c-0.0425599-0.041507-0.0818856-0.062871-0.1145747-0.0655181z"/>
        <path d="m1.0929551 1.0589272c-0.02139 0.00519-0.03462 0.046072-0.03462 0.1214396v8.1628093c0 0.150736 0.05279 0.3803915 0.118339 0.515214l1.0861397 1.6898189c0.06555 0.134828 0.118339 0.122314 0.118339-0.02842v-8.1628109c0-0.150736-0.05279-0.3803919-0.118339-0.515214l-1.0861407-1.6898193c-0.03278-0.067411-0.06233-0.09821-0.08371-0.093018z"/>
    </g>
    <path d="m14.338252 8.9736023v-4.4409567q0-0.3662645 0.122088-0.5951798 0.122088-0.2365458 0.358634-0.343373 0.244176-0.1144576 0.595179-0.1144576h0.419678v0.5493967h-0.31285q-0.28996 0-0.419678 0.1144577-0.122089 0.1144576-0.122089 0.404417v4.4256957zm-0.579919-3.2887498v-0.5417662h2.182326v0.5417662zm2.352588 3.2887498v-3.830516h0.640963v3.830516zm0.320482-4.654611q-0.190763 0-0.320482-0.1220882-0.122088-0.1297186-0.122088-0.3204814 0-0.1907627 0.122088-0.3052204 0.129719-0.1220881 0.320482-0.1220881 0.183132 0 0.31285 0.1220881 0.129719 0.1144577 0.129719 0.3052204 0 0.1907628-0.129719 0.3204814-0.129718 0.1220882-0.31285 0.1220882zm0.77308 4.654611v-5.4939671h0.640963v5.4939671zm2.764638 0.091566q-0.534136 0-0.961445-0.2441763-0.427308-0.2518068-0.679115-0.7020069-0.244176-0.4502001-0.244176-1.0530104 0-0.6180713 0.251806-1.0682713 0.251807-0.4502001 0.679116-0.6943764 0.434939-0.2518069 0.969075-0.2518069 0.541766 0 0.969074 0.2518069 0.427309 0.2441763 0.671485 0.6943764 0.244176 0.4502 0.244176 1.0606408t-0.251806 1.0606409q-0.244177 0.4502001-0.679116 0.7020069-0.427308 0.2441763-0.969074 0.2441763zm0-0.5493967q0.335742 0 0.618071-0.1602407 0.282329-0.1678712 0.4502-0.4883526 0.175502-0.328112 0.175502-0.8088341 0-0.4883526-0.167872-0.808834-0.167871-0.3204814-0.4502-0.4807221-0.282329-0.1678713-0.61044-0.1678713-0.320482 0-0.610441 0.1678713-0.282329 0.1602407-0.457831 0.4807221t-0.175502 0.808834q0 0.4807221 0.175502 0.8088341 0.175502 0.3204814 0.4502 0.4883526 0.282329 0.1602407 0.602811 0.1602407zm3.497169 0.4578306q-0.343373 0-0.59518-0.1068271-0.251806-0.1068271-0.389156-0.3586339-0.129718-0.2594373-0.129718-0.6943764v-2.1289123h-0.663855v-0.5417662h0.663855l0.08394-0.9232916h0.557028v0.9232916h1.114054v0.5417662h-1.114054v2.1289123q0 0.358634 0.144979 0.4883526 0.14498 0.1220882 0.511244 0.1220882h0.412048v0.5493967zm0.879911 0v-3.830516h0.640963v3.830516zm0.320482-4.654611q-0.190763 0-0.320482-0.1220882-0.122088-0.1297186-0.122088-0.3204814 0-0.1907627 0.122088-0.3052204 0.129719-0.1220881 0.320482-0.1220881 0.183132 0 0.31285 0.1220881 0.129719 0.1144577 0.129719 0.3052204 0 0.1907628-0.129719 0.3204814-0.129718 0.1220882-0.31285 0.1220882zm0.77308 4.654611v-3.830516h0.579919l0.04578 0.5493968q0.183132-0.2975899 0.488352-0.4654611 0.305221-0.1755018 0.679116-0.1755018 0.297589 0 0.541766 0.083936 0.244176 0.076305 0.427308 0.2441764 0.183133 0.1602407 0.29759 0.4120475 0.198393-0.3510035 0.541766-0.5417662 0.351004-0.1983933 0.74779-0.1983933 0.4502 0 0.778312 0.1831323 0.335743 0.1755017 0.511245 0.5417662 0.183132 0.3662644 0.183132 0.9232917v2.2738916h-0.63333v-2.2052174q0-0.5799187-0.236545-0.8698781-0.236546-0.2975899-0.671485-0.2975899-0.29759 0-0.534136 0.1602407-0.236546 0.1602408-0.373895 0.4578306-0.137349 0.2975899-0.137349 0.732529v2.0220851h-0.640963v-2.2052174q0-0.5799187-0.236546-0.8698781-0.236545-0.2975899-0.671485-0.2975899-0.289959 0-0.534135 0.1602407-0.236546 0.1602408-0.373895 0.4578306-0.137349 0.2975899-0.137349 0.732529v2.0220851zm7.869453 0.091566q-0.534136 0-0.961445-0.2441763-0.427308-0.2518066-0.679115-0.7020067-0.244176-0.4502001-0.244176-1.0530104 0-0.6180713 0.251806-1.0682713 0.251807-0.4502001 0.679116-0.6943764 0.434939-0.2518069 0.969075-0.2518069 0.541766 0 0.969074 0.2518069 0.427309 0.2441763 0.671485 0.6943764 0.244177 0.4502 0.244177 1.0606408t-0.251807 1.0606409q-0.244177 0.4502001-0.679116 0.7020069-0.427308 0.2441763-0.969074 0.2441763zm0-0.5493967q0.335742 0 0.618071-0.1602407 0.282329-0.1678712 0.4502-0.4883526 0.175502-0.328112 0.175502-0.8088341 0-0.4883526-0.167872-0.808834-0.167871-0.3204814-0.4502-0.4807221-0.282329-0.1678713-0.61044-0.1678713-0.320482 0-0.610441 0.1678713-0.282329 0.1602407-0.457831 0.4807221t-0.175502 0.808834q0 0.4807221 0.175502 0.8088341 0.175502 0.3204814 0.4502 0.4883526 0.282329 0.1602407 0.602811 0.1602407z" fill="#f7f8f8" stroke-width="0" style="font-variant-ligatures:no-common-ligatures;font-variation-settings:'opsz' 16.6" aria-label="filotimo"/>
</svg>
